<mxfile host="Electron" modified="2020-05-20T12:20:02.137Z" agent="Mozilla/5.0 (X11; Linux x86_64) AppleWebKit/537.36 (KHTML, like Gecko) draw.io/12.3.2 Chrome/78.0.3904.113 Electron/7.1.2 Safari/537.36" etag="WZF23s3imsp7qTAc3cHD" version="12.3.2" type="device" pages="1">
  <diagram id="77bR76F1JDMTDbQd5v33" name="Page-1">
    <mxGraphModel dx="653" dy="403" grid="1" gridSize="10" guides="0" tooltips="1" connect="1" arrows="1" fold="1" page="1" pageScale="1" pageWidth="827" pageHeight="1169" math="0" shadow="0">
      <root>
        <mxCell id="0"/>
        <mxCell id="1" parent="0"/>
        <mxCell id="TskEhKjamcN0zM5i3UB9-1" value="&lt;b&gt;pc_memory_init&lt;/b&gt;" style="rounded=0;whiteSpace=wrap;html=1;" parent="1" vertex="1">
          <mxGeometry x="80" y="140" width="100" height="30" as="geometry"/>
        </mxCell>
        <mxCell id="TskEhKjamcN0zM5i3UB9-2" value="184:&amp;nbsp;hw/i386/pc.c: 1810~1939" style="text;html=1;align=left;verticalAlign=middle;resizable=0;points=[];;autosize=1;" parent="1" vertex="1">
          <mxGeometry x="80" y="120" width="180" height="20" as="geometry"/>
        </mxCell>
        <mxCell id="TskEhKjamcN0zM5i3UB9-3" value="PCMachineState *pcms" style="rounded=0;whiteSpace=wrap;html=1;fillColor=#f5f5f5;strokeColor=#666666;fontColor=#333333;" parent="1" vertex="1">
          <mxGeometry x="180" y="140" width="100" height="30" as="geometry"/>
        </mxCell>
        <mxCell id="TskEhKjamcN0zM5i3UB9-4" value="MemoryRegion *system_memory" style="rounded=0;whiteSpace=wrap;html=1;fillColor=#f5f5f5;strokeColor=#666666;fontColor=#333333;" parent="1" vertex="1">
          <mxGeometry x="280" y="140" width="100" height="30" as="geometry"/>
        </mxCell>
        <mxCell id="TskEhKjamcN0zM5i3UB9-5" value="MemoryRegion *rom_memory" style="rounded=0;whiteSpace=wrap;html=1;fillColor=#d5e8d4;strokeColor=#82b366;" parent="1" vertex="1">
          <mxGeometry x="380" y="140" width="100" height="30" as="geometry"/>
        </mxCell>
        <mxCell id="TskEhKjamcN0zM5i3UB9-6" value="MemoryRegion **ram_memory" style="rounded=0;whiteSpace=wrap;html=1;fillColor=#f5f5f5;strokeColor=#666666;fontColor=#333333;" parent="1" vertex="1">
          <mxGeometry x="480" y="140" width="100" height="30" as="geometry"/>
        </mxCell>
        <mxCell id="TskEhKjamcN0zM5i3UB9-8" value="&lt;b&gt;memory_region_init&lt;/b&gt;" style="rounded=0;whiteSpace=wrap;html=1;" parent="1" vertex="1">
          <mxGeometry x="80" y="80" width="120" height="20" as="geometry"/>
        </mxCell>
        <mxCell id="TskEhKjamcN0zM5i3UB9-19" style="edgeStyle=orthogonalEdgeStyle;rounded=0;orthogonalLoop=1;jettySize=auto;html=1;strokeWidth=2;fillColor=#d5e8d4;strokeColor=#82b366;" parent="1" source="TskEhKjamcN0zM5i3UB9-10" target="TskEhKjamcN0zM5i3UB9-5" edge="1">
          <mxGeometry relative="1" as="geometry">
            <Array as="points">
              <mxPoint x="260" y="110"/>
              <mxPoint x="430" y="110"/>
            </Array>
          </mxGeometry>
        </mxCell>
        <mxCell id="TskEhKjamcN0zM5i3UB9-10" value="MemoryRegion *mr" style="rounded=0;whiteSpace=wrap;html=1;fillColor=#d5e8d4;strokeColor=#82b366;" parent="1" vertex="1">
          <mxGeometry x="200" y="80" width="120" height="20" as="geometry"/>
        </mxCell>
        <mxCell id="TskEhKjamcN0zM5i3UB9-11" value="Object *owner" style="rounded=0;whiteSpace=wrap;html=1;fillColor=#f5f5f5;strokeColor=#666666;fontColor=#333333;" parent="1" vertex="1">
          <mxGeometry x="320" y="80" width="80" height="20" as="geometry"/>
        </mxCell>
        <mxCell id="TskEhKjamcN0zM5i3UB9-12" value="const char *name" style="rounded=0;whiteSpace=wrap;html=1;fillColor=#f5f5f5;strokeColor=#666666;fontColor=#333333;" parent="1" vertex="1">
          <mxGeometry x="400" y="80" width="100" height="20" as="geometry"/>
        </mxCell>
        <mxCell id="TskEhKjamcN0zM5i3UB9-13" value="uint64_t size" style="rounded=0;whiteSpace=wrap;html=1;fillColor=#f5f5f5;strokeColor=#666666;fontColor=#333333;" parent="1" vertex="1">
          <mxGeometry x="500" y="80" width="80" height="20" as="geometry"/>
        </mxCell>
        <mxCell id="TskEhKjamcN0zM5i3UB9-15" value="MemoryRegion *pci_memory" style="endArrow=classic;html=1;strokeWidth=2;fillColor=#d5e8d4;strokeColor=#82b366;" parent="1" target="TskEhKjamcN0zM5i3UB9-10" edge="1">
          <mxGeometry x="-1" width="50" height="50" relative="1" as="geometry">
            <mxPoint x="260" y="50" as="sourcePoint"/>
            <mxPoint x="250" y="20" as="targetPoint"/>
            <mxPoint as="offset"/>
          </mxGeometry>
        </mxCell>
        <mxCell id="TskEhKjamcN0zM5i3UB9-9" value="hw/i386/pc_piix.c: 164: memory.c: 1179~1182" style="text;html=1;align=left;verticalAlign=middle;resizable=0;points=[];;autosize=1;" parent="1" vertex="1">
          <mxGeometry x="80" y="60" width="260" height="20" as="geometry"/>
        </mxCell>
        <mxCell id="TskEhKjamcN0zM5i3UB9-16" value="NULL" style="endArrow=classic;html=1;strokeWidth=2;fillColor=#f5f5f5;strokeColor=#666666;" parent="1" target="TskEhKjamcN0zM5i3UB9-11" edge="1">
          <mxGeometry x="-1" width="50" height="50" relative="1" as="geometry">
            <mxPoint x="360" y="50" as="sourcePoint"/>
            <mxPoint x="320" y="220" as="targetPoint"/>
            <mxPoint as="offset"/>
          </mxGeometry>
        </mxCell>
        <mxCell id="TskEhKjamcN0zM5i3UB9-17" value="&quot;pci&quot;" style="endArrow=classic;html=1;strokeWidth=2;fillColor=#f5f5f5;strokeColor=#666666;" parent="1" target="TskEhKjamcN0zM5i3UB9-12" edge="1">
          <mxGeometry x="-1" width="50" height="50" relative="1" as="geometry">
            <mxPoint x="450" y="50" as="sourcePoint"/>
            <mxPoint x="370" y="270" as="targetPoint"/>
            <mxPoint as="offset"/>
          </mxGeometry>
        </mxCell>
        <mxCell id="TskEhKjamcN0zM5i3UB9-18" value="UINT64_MAX" style="endArrow=classic;html=1;strokeWidth=2;fillColor=#f5f5f5;strokeColor=#666666;" parent="1" target="TskEhKjamcN0zM5i3UB9-13" edge="1">
          <mxGeometry x="-1" width="50" height="50" relative="1" as="geometry">
            <mxPoint x="540" y="50" as="sourcePoint"/>
            <mxPoint x="470" y="230" as="targetPoint"/>
            <mxPoint as="offset"/>
          </mxGeometry>
        </mxCell>
        <mxCell id="TskEhKjamcN0zM5i3UB9-20" value="&lt;font color=&quot;#999999&quot;&gt;/// 输出&lt;/font&gt;" style="text;html=1;align=left;verticalAlign=middle;resizable=0;points=[];;autosize=1;" parent="1" vertex="1">
          <mxGeometry x="200" y="100" width="50" height="20" as="geometry"/>
        </mxCell>
        <mxCell id="TskEhKjamcN0zM5i3UB9-21" value="&lt;font color=&quot;#999999&quot;&gt;/// 输出&lt;/font&gt;" style="text;html=1;align=left;verticalAlign=middle;resizable=0;points=[];;autosize=1;" parent="1" vertex="1">
          <mxGeometry x="480" y="120" width="50" height="20" as="geometry"/>
        </mxCell>
        <mxCell id="TskEhKjamcN0zM5i3UB9-22" value="&lt;b&gt;get_system_memory&lt;/b&gt;" style="endArrow=classic;html=1;strokeWidth=2;fillColor=#f5f5f5;strokeColor=#666666;" parent="1" target="TskEhKjamcN0zM5i3UB9-4" edge="1">
          <mxGeometry x="-1" width="50" height="50" relative="1" as="geometry">
            <mxPoint x="330" y="120" as="sourcePoint"/>
            <mxPoint x="270" y="210" as="targetPoint"/>
            <mxPoint as="offset"/>
          </mxGeometry>
        </mxCell>
        <mxCell id="TskEhKjamcN0zM5i3UB9-24" value="&lt;b&gt;pc_system_firmware_init&lt;/b&gt;" style="rounded=0;whiteSpace=wrap;html=1;" parent="1" vertex="1">
          <mxGeometry x="120" y="200" width="160" height="20" as="geometry"/>
        </mxCell>
        <mxCell id="TskEhKjamcN0zM5i3UB9-25" value="&lt;b&gt;old_pc_system_rom_init&lt;/b&gt;" style="rounded=0;whiteSpace=wrap;html=1;" parent="1" vertex="1">
          <mxGeometry x="160" y="240" width="160" height="20" as="geometry"/>
        </mxCell>
        <mxCell id="TskEhKjamcN0zM5i3UB9-26" value="hw/i386/pc_sysfw.c: 270~313" style="text;html=1;align=left;verticalAlign=middle;resizable=0;points=[];;autosize=1;" parent="1" vertex="1">
          <mxGeometry x="120" y="180" width="170" height="20" as="geometry"/>
        </mxCell>
        <mxCell id="TskEhKjamcN0zM5i3UB9-27" value="hw/i386/pc_sysfw.c: 270~313" style="text;html=1;align=left;verticalAlign=middle;resizable=0;points=[];;autosize=1;" parent="1" vertex="1">
          <mxGeometry x="160" y="220" width="170" height="20" as="geometry"/>
        </mxCell>
        <mxCell id="TskEhKjamcN0zM5i3UB9-28" value="MemoryRegion *rom_memory" style="rounded=0;whiteSpace=wrap;html=1;" parent="1" vertex="1">
          <mxGeometry x="320" y="240" width="180" height="20" as="geometry"/>
        </mxCell>
        <mxCell id="TskEhKjamcN0zM5i3UB9-29" value="bool isapc_ram_fw" style="rounded=0;whiteSpace=wrap;html=1;" parent="1" vertex="1">
          <mxGeometry x="500" y="240" width="120" height="20" as="geometry"/>
        </mxCell>
        <mxCell id="TskEhKjamcN0zM5i3UB9-30" value="&lt;b&gt;&lt;font color=&quot;#666600&quot;&gt;rom_add_file_fixed&lt;/font&gt;&lt;/b&gt;" style="rounded=0;whiteSpace=wrap;html=1;" parent="1" vertex="1">
          <mxGeometry x="200" y="280" width="120" height="20" as="geometry"/>
        </mxCell>
        <mxCell id="uFBIBCKkNY8VECWJ-aHd-1" value="&lt;font color=&quot;#999999&quot;&gt;/// 这个函数将bios加载到host内存里，&lt;br&gt;/// 并把其映射到guest内存树里&lt;/font&gt;" style="text;html=1;align=left;verticalAlign=middle;resizable=0;points=[];;autosize=1;" vertex="1" parent="1">
          <mxGeometry x="320" y="210" width="220" height="30" as="geometry"/>
        </mxCell>
        <mxCell id="uFBIBCKkNY8VECWJ-aHd-3" value="&lt;font color=&quot;#999999&quot;&gt;/// 加载函数&lt;br&gt;&lt;/font&gt;" style="text;html=1;align=left;verticalAlign=middle;resizable=0;points=[];;autosize=1;" vertex="1" parent="1">
          <mxGeometry x="200" y="260" width="80" height="20" as="geometry"/>
        </mxCell>
      </root>
    </mxGraphModel>
  </diagram>
</mxfile>
